#!OML:ASF F:\VICON\USERDATA\INSTALL\rory3\rory3.ASF
:FULLY-SPECIFIED
:DEGREES
166
root -3.68963 15.3024 36.499 -148.806 -19.065 -186.012
lowerback 3.13341 0.437729 4.9934
upperback -0.273433 0.572826 5.20951
thorax -2.03769 0.128791 2.55108
lowerneck -10.3915 -10.0396 -11.2445
upperneck 21.6981 -15.4258 9.11941
head 10.203 -7.46632 2.98229
rclavicle -2.8625e-014 -7.63333e-014
rhumerus 21.1416 -0.113351 -44.9021
rradius 25.4592
rwrist 15.8886
rhand -29.2118 -62.5363
rfingers 7.12502
rthumb -2.55623 -1347.5
lclavicle -2.8625e-014 -7.63333e-014
lhumerus -4.28186 -1.02892 22.0884
lradius 29.0443
lwrist 0.509112
lhand -39.5136 -39.5364
lfingers 7.12502
lthumb -12.4989 -9.93017
rfemur -83.9848 -12.8854 26.7632
rtibia 50.8424
rfoot -0.345281 -9.20066
rtoes -15.5689
lfemur -19.5082 -5.03712 -23.5871
ltibia 34.2498
lfoot -35.8563 9.91171
ltoes -16.5148
167
root -3.66548 15.2789 36.3248 -148.782 -19.6274 -186.761
lowerback 3.88761 0.0054197 4.79032
upperback 0.0937306 0.0196405 5.40605
thorax -2.07807 -0.146289 2.8985
lowerneck -10.2819 -9.98096 -11.4616
upperneck 21.108 -15.2024 9.27388
head 9.97842 -7.35779 3.11616
rclavicle -1.11319e-014 -6.20208e-014
rhumerus 22.2531 0.527669 -44.82
rradius 25.1794
rwrist 15.621
rhand -27.8851 -63.1422
rfingers 7.12502
rthumb -1.27497 -1346.88
lclavicle -1.11319e-014 -6.20208e-014
lhumerus -2.79522 -0.809383 21.9971
lradius 29.218
lwrist -0.579701
lhand -39.8169 -40.5445
lfingers 7.12502
lthumb -12.7913 -10.9563
rfemur -83.8524 -13.5368 26.757
rtibia 51.7765
rfoot -0.143941 -8.97569
rtoes -8.13153
lfemur -18.6314 -4.93876 -23.6652
ltibia 34.1186
lfoot -35.7797 8.95867
ltoes -17.4836
168
root -3.65276 15.2392 36.178 -147.865 -19.5508 -187.192
lowerback 3.83805 -0.0302397 4.72258
upperback 0.377819 -0.0697555 5.55509
thorax -1.75446 -0.191769 3.09343
lowerneck -10.5913 -10.0897 -11.529
upperneck 20.4828 -15.1407 9.33971
head 9.82083 -7.29242 3.14953
rclavicle -2.70347e-014 -4.13472e-014
rhumerus 23.4426 0.490906 -44.7308
rradius 25.0535
rwrist 15.3103
rhand -27.4726 -63.5005
rfingers 7.12502
rthumb -0.876553 -1346.52
lclavicle -2.70347e-014 -4.13472e-014
lhumerus -0.809225 -0.474791 22.1137
lradius 29.3146
lwrist -1.49352
lhand -40.3352 -41.743
lfingers 7.12502
lthumb -13.2908 -12.1868
rfemur -85.0596 -13.6538 27.3711
rtibia 52.6629
rfoot 0.00252575 -8.61514
rtoes -1.89525
lfemur -18.9055 -4.72989 -23.8138
ltibia 33.9387
lfoot -35.4003 8.46196
ltoes -18.3449
169
root -3.64001 15.2081 36.0214 -147.094 -19.4616 -187.421
lowerback 3.93563 -0.0354003 4.77156
upperback 0.591417 -0.106386 5.78275
thorax -1.58644 -0.218828 3.30492
lowerneck -10.68 -10.1401 -11.5377
upperneck 19.8313 -15.0126 9.26845
head 9.58955 -7.21978 3.14908
rclavicle -5.08889e-014 -9.22361e-014
rhumerus 24.1625 0.770214 -44.5936
rradius 24.965
rwrist 15.9787
rhand -27.7594 -63.0513
rfingers 7.12502
rthumb -1.15354 -1346.97
lclavicle -5.08889e-014 -9.22361e-014
lhumerus 0.964451 -0.722679 22.1471
lradius 29.5471
lwrist -2.24001
lhand -40.849 -43.2893
lfingers 7.12502
lthumb -13.7861 -13.766
rfemur -86.0322 -13.5898 28.0597
rtibia 53.5124
rfoot -0.271118 -9.14401
rtoes 2.51358
lfemur -19.0864 -4.44958 -23.7873
ltibia 33.8106
lfoot -35.0969 8.0765
ltoes -19.3344
170
root -3.62364 15.1796 35.8526 -146.55 -19.482 -187.722
lowerback 4.61376 -0.126427 4.88708
upperback 0.582152 -0.177158 5.93813
thorax -1.9743 -0.265945 3.41552
lowerneck -10.6224 -10.1269 -11.5596
upperneck 19.4851 -14.9042 9.21044
head 9.44307 -7.17222 3.15625
rclavicle -5.88403e-014 -9.54166e-015
rhumerus 24.5328 1.06403 -44.7326
rradius 25.0152
rwrist 15.9788
rhand -26.963 -63.8362
rfingers 7.12502
rthumb -0.384333 -1346.18
lclavicle -5.88403e-014 -9.54166e-015
lhumerus 2.51208 -1.65461 21.9521
lradius 29.4381
lwrist -3.90953
lhand -42.1642 -46.6352
lfingers 7.12502
lthumb -15.0533 -17.2025
rfemur -86.5746 -13.5064 28.3871
rtibia 54.3342
rfoot -0.941434 -10.5113
rtoes 6.53871
lfemur -18.9747 -4.17726 -23.7662
ltibia 33.7807
lfoot -34.8658 7.81383
ltoes -20.575
171
root -3.6216 15.1223 35.7217 -145.186 -18.8018 -187.664
lowerback 4.41313 0.0936154 5.19678
upperback 0.556861 0.100532 5.9885
thorax -1.89254 -0.135525 3.27628
lowerneck -10.7899 -10.1749 -11.6065
upperneck 18.9663 -14.8388 9.32158
head 9.30086 -7.11425 3.20824
rclavicle -1.04958e-013 -8.26944e-014
rhumerus 25.2862 0.800953 -45.0587
rradius 24.9935
rwrist 15.9483
rhand -27.4127 -63.6521
rfingers 7.12502
rthumb -0.818671 -1346.37
lclavicle -1.04958e-013 -8.26944e-014
lhumerus 4.38717 -1.97864 21.84
lradius 29.3213
lwrist -5.59281
lhand -43.2232 -48.6038
lfingers 7.12502
lthumb -16.0733 -19.2504
rfemur -88.2695 -12.6371 28.9165
rtibia 55.021
rfoot -1.34157 -11.3926
rtoes 9.32387
lfemur -20.0306 -3.79287 -23.9113
ltibia 33.8978
lfoot -34.3317 8.47244
ltoes -22.566
172
root -3.6067 15.0907 35.5647 -144.496 -18.5544 -187.798
lowerback 5.1111 0.091873 5.48551
upperback 0.579905 0.162934 6.0463
thorax -2.26001 -0.117708 3.17795
lowerneck -10.8315 -10.184 -11.5007
upperneck 18.4239 -14.7553 9.37737
head 9.10921 -7.0514 3.22767
rclavicle -4.29375e-014 -4.77083e-014
rhumerus 25.9755 0.655055 -45.5281
rradius 24.9255
rwrist 16.0757
rhand -28.373 -62.0441
rfingers 7.12502
rthumb -1.74621 -1347.98
lclavicle -4.29375e-014 -4.77083e-014
lhumerus 6.1787 -2.53468 21.5658
lradius 29.8142
lwrist -5.88557
lhand -42.4447 -47.9627
lfingers 7.12502
lthumb -15.3236 -18.5504
rfemur -89.0207 -12.0189 28.8333
rtibia 55.887
rfoot -1.91129 -12.4691
rtoes 10.7557
lfemur -20.176 -3.30392 -23.9219
ltibia 33.8939
lfoot -33.8764 8.38954
ltoes -24.2074
173
root -3.59015 15.0612 35.4162 -143.631 -18.222 -187.805
lowerback 5.00775 0.229503 5.39503
upperback 0.987103 0.25084 6.42462
thorax -1.78128 -0.0866557 3.61528
lowerneck -10.8757 -10.2442 -11.4845
upperneck 17.4878 -14.6132 9.3031
head 8.77613 -6.972 3.22995
rclavicle -3.33958e-014 1.59028e-015
rhumerus 27.2566 0.43084 -45.4183
rradius 24.8818
rwrist 15.8897
rhand -28.4227 -61.1129
rfingers 7.12502
rthumb -1.79415 -1348.91
lclavicle -3.33958e-014 1.59028e-015
lhumerus 8.07568 -2.74981 21.6171
lradius 30.3987
lwrist -5.63684
lhand -40.8659 -47.5658
lfingers 7.12502
lthumb -13.8024 -18.0437
rfemur -89.978 -11.2766 28.8147
rtibia 56.7492
rfoot -2.49585 -13.2762
rtoes 12.1257
lfemur -20.6927 -2.83115 -23.8433
ltibia 34.0476
lfoot -33.4735 7.81877
ltoes -24.8027
